<?xml version="1.0" standalone="no"?>
<!DOCTYPE svg PUBLIC "-//W3C//DTD SVG 20010904//EN"
 "http://www.w3.org/TR/2001/REC-SVG-20010904/DTD/svg10.dtd">
<svg version="1.0" xmlns="http://www.w3.org/2000/svg"
 width="400.000000pt" height="400.000000pt" viewBox="0 0 400.000000 400.000000"
 preserveAspectRatio="xMidYMid meet">
<metadata>
Created by potrace 1.11, written by Peter Selinger 2001-2013
</metadata>
<g transform="translate(0.000000,400.000000) scale(0.100000,-0.100000)"
fill="#000000" stroke="none">
<path d="M1160 3505 l0 -165 -165 0 -165 0 0 -1170 0 -1170 335 0 335 0 0 500
0 500 170 0 170 0 0 -835 0 -835 335 0 335 0 0 500 0 500 330 0 330 0 0 335 0
335 -330 0 -330 0 0 165 0 165 330 0 330 0 0 335 0 335 -500 0 -500 0 0 335 0
335 -505 0 -505 0 0 -165z m1010 -670 l0 -165 -335 0 -335 0 0 165 0 165 335
0 335 0 0 -165z"/>
</g>
</svg>
